<mxfile host="Electron" agent="Mozilla/5.0 (Windows NT 10.0; Win64; x64) AppleWebKit/537.36 (KHTML, like Gecko) draw.io/26.0.16 Chrome/132.0.6834.196 Electron/34.2.0 Safari/537.36" version="26.0.16">
  <diagram name="Страница — 1" id="vWozT8b2Qmqx06dfOd23">
    <mxGraphModel dx="1646" dy="490" grid="1" gridSize="10" guides="1" tooltips="1" connect="1" arrows="1" fold="1" page="1" pageScale="1" pageWidth="827" pageHeight="1169" math="0" shadow="0">
      <root>
        <mxCell id="0" />
        <mxCell id="1" parent="0" />
        <mxCell id="SMAYtjDsOAsxAQ-uomec-1" value="Telegram Bot" style="rounded=1;whiteSpace=wrap;html=1;" vertex="1" parent="1">
          <mxGeometry x="-380" y="90" width="220" height="110" as="geometry" />
        </mxCell>
        <mxCell id="SMAYtjDsOAsxAQ-uomec-5" value="" style="rounded=1;whiteSpace=wrap;html=1;" vertex="1" parent="1">
          <mxGeometry x="130" y="80" width="840" height="560" as="geometry" />
        </mxCell>
        <mxCell id="SMAYtjDsOAsxAQ-uomec-6" value="Rent API" style="text;strokeColor=none;fillColor=none;html=1;fontSize=24;fontStyle=1;verticalAlign=middle;align=center;" vertex="1" parent="1">
          <mxGeometry x="364" y="80" width="100" height="40" as="geometry" />
        </mxCell>
        <mxCell id="SMAYtjDsOAsxAQ-uomec-11" value="&lt;font style=&quot;font-size: 15px;&quot;&gt;api/subscribe&lt;/font&gt;" style="text;html=1;align=center;verticalAlign=middle;whiteSpace=wrap;rounded=0;" vertex="1" parent="1">
          <mxGeometry x="170" y="190" width="140" height="30" as="geometry" />
        </mxCell>
        <mxCell id="SMAYtjDsOAsxAQ-uomec-12" value="&lt;font style=&quot;font-size: 15px;&quot;&gt;api/subscribe&lt;/font&gt;" style="text;html=1;align=center;verticalAlign=middle;whiteSpace=wrap;rounded=0;" vertex="1" parent="1">
          <mxGeometry x="170" y="160" width="140" height="30" as="geometry" />
        </mxCell>
        <mxCell id="SMAYtjDsOAsxAQ-uomec-13" value="&lt;font style=&quot;font-size: 15px;&quot;&gt;api/subscribe&lt;/font&gt;" style="text;html=1;align=center;verticalAlign=middle;whiteSpace=wrap;rounded=0;" vertex="1" parent="1">
          <mxGeometry x="170" y="250" width="140" height="30" as="geometry" />
        </mxCell>
        <mxCell id="SMAYtjDsOAsxAQ-uomec-14" value="&lt;font style=&quot;font-size: 15px;&quot;&gt;api/subscribe&lt;/font&gt;" style="text;html=1;align=center;verticalAlign=middle;whiteSpace=wrap;rounded=0;" vertex="1" parent="1">
          <mxGeometry x="170" y="220" width="140" height="30" as="geometry" />
        </mxCell>
        <mxCell id="SMAYtjDsOAsxAQ-uomec-15" value="" style="rounded=0;whiteSpace=wrap;html=1;fillColor=none;" vertex="1" parent="1">
          <mxGeometry x="170" y="125" width="410" height="220" as="geometry" />
        </mxCell>
        <mxCell id="SMAYtjDsOAsxAQ-uomec-17" value="subscribe api" style="text;html=1;align=center;verticalAlign=middle;whiteSpace=wrap;rounded=0;" vertex="1" parent="1">
          <mxGeometry x="195" y="130" width="90" height="30" as="geometry" />
        </mxCell>
        <mxCell id="SMAYtjDsOAsxAQ-uomec-19" value="user api" style="text;html=1;align=center;verticalAlign=middle;whiteSpace=wrap;rounded=0;" vertex="1" parent="1">
          <mxGeometry x="447" y="130" width="60" height="30" as="geometry" />
        </mxCell>
        <mxCell id="SMAYtjDsOAsxAQ-uomec-20" value="/api/user/details" style="text;html=1;align=center;verticalAlign=middle;whiteSpace=wrap;rounded=0;" vertex="1" parent="1">
          <mxGeometry x="420" y="160" width="114" height="30" as="geometry" />
        </mxCell>
        <mxCell id="SMAYtjDsOAsxAQ-uomec-21" value="/api/user/create" style="text;html=1;align=center;verticalAlign=middle;whiteSpace=wrap;rounded=0;" vertex="1" parent="1">
          <mxGeometry x="420" y="190" width="114" height="30" as="geometry" />
        </mxCell>
        <mxCell id="SMAYtjDsOAsxAQ-uomec-22" value="/api/user/checkExists" style="text;html=1;align=center;verticalAlign=middle;whiteSpace=wrap;rounded=0;" vertex="1" parent="1">
          <mxGeometry x="420" y="220" width="140" height="30" as="geometry" />
        </mxCell>
        <mxCell id="SMAYtjDsOAsxAQ-uomec-24" value="/api/user/edit" style="text;html=1;align=center;verticalAlign=middle;whiteSpace=wrap;rounded=0;" vertex="1" parent="1">
          <mxGeometry x="400" y="250" width="134" height="30" as="geometry" />
        </mxCell>
      </root>
    </mxGraphModel>
  </diagram>
</mxfile>
